<svg xmlns="http://www.w3.org/2000/svg">

  <!-- Logo footer-->
  <symbol id="logo-footer" viewBox="0 0 168 85">
    <path fill-rule="evenodd" clip-rule="evenodd" d="M93.8464 23.8081V47.6163H99.5193H105.192L105.125 45.859L105.057 44.1017L101.185 44.0396L97.3136 43.9775V21.9887V0H95.58H93.8464V23.8081ZM38.833 15.2213C36.4771 15.7048 33.2161 16.9974 30.9816 18.3339C28.0309 20.0984 24.7158 23.2388 22.9968 25.8971L22.3059 26.966L11.1529 26.9742L0 26.9826V39V51.0174L11.0374 51.0233L22.0747 51.029L23.1149 52.6529C24.3397 54.5651 27.4649 57.769 29.587 59.2882C31.6073 60.7346 34.7042 62.2343 37.0434 62.8993C42.7972 64.5348 49.8551 64.0493 54.9767 61.6658C64.4348 57.264 70.0889 47.9548 69.5007 37.7529C69.1951 32.4509 67.5669 28.2362 64.245 24.1483C60.3136 19.31 54.4864 15.8546 48.7724 14.9735C46.2684 14.5874 41.3206 14.7107 38.833 15.2213ZM48.3475 18.913C52.4405 19.6853 55.8846 21.4294 59.093 24.3548C62.0491 27.0501 64.0439 30.3787 65.0032 34.2164C65.6201 36.6836 65.6793 41.2495 65.1262 43.6789C63.3489 51.4818 56.4946 58.0778 48.6529 59.5306C46.2032 59.9843 41.7247 59.875 39.2953 59.3022C37.3564 58.8449 34.7486 57.749 32.7076 56.5341C31.0597 55.553 27.5696 52.4527 27.0717 51.5276L26.7971 51.0174H35.4732H44.1494V39.0027V26.988L35.5391 26.9286L26.9288 26.8692L28.5469 25.2033C31.8359 21.8171 35.3732 19.8159 39.642 18.9263C41.5418 18.5307 46.2818 18.5232 48.3475 18.913ZM109.565 24.375V26.0756H111.298H113.032V24.375V22.6744H111.298H109.565V24.375ZM152.253 28.2238C150.902 28.6884 150.338 29.6321 150.516 31.1308L150.605 31.8768L149.009 31.0737C147.491 30.3098 147.298 30.2703 145.074 30.2703C143.024 30.2703 142.572 30.3449 141.423 30.8735C136.695 33.0477 134.843 38.7553 137.31 43.5494C139.456 47.7203 145.14 49.2654 149.777 46.9385C150.798 46.4266 152.792 44.7196 152.783 44.3659C152.779 44.2206 152.238 43.719 151.58 43.2514L150.384 42.4012L149.68 43.0458C148.167 44.4305 147.275 44.782 145.277 44.782C143.307 44.782 142.406 44.4357 140.944 43.117C140.393 42.6206 139.383 40.5371 139.383 39.8984C139.383 39.7632 142.161 39.6802 146.687 39.6802H153.99L153.824 38.2683C153.622 36.5693 153.198 35.3222 152.434 34.1864C152.121 33.7216 151.865 33.3108 151.865 33.2736C151.865 33.2364 152.284 33.2452 152.797 33.2933C154.032 33.4087 154.993 32.9895 155.561 32.0875C156.957 29.8717 154.797 27.3492 152.253 28.2238ZM154.533 29.1264C154.963 29.5479 155.099 29.9189 155.093 30.6569C155.082 32.1457 154.093 33.0455 152.779 32.7623C151.175 32.4167 150.646 30.4109 151.847 29.2325C152.709 28.3868 153.738 28.3462 154.533 29.1264ZM12.5333 30.2214C13.8104 30.9556 14.3312 32.0546 14.3312 34.0162V35.3721H12.1469H9.96251L9.89317 34.0706C9.83862 33.0471 9.73784 32.753 9.42186 32.694C8.81463 32.5806 8.42468 33.6048 8.68634 34.6256C8.86525 35.3233 9.20134 35.6589 10.7863 36.7219C14.2912 39.0723 14.637 39.6297 14.6608 42.968C14.681 45.7706 14.3204 46.5424 12.5981 47.382C10.4955 48.4072 7.92054 48.2636 5.93382 47.0106C4.82569 46.3118 4.47758 45.5028 4.26724 43.1376L4.10104 41.2674H6.43264H8.76424L8.83173 43.0247C8.89715 44.7303 8.91633 44.782 9.4771 44.782C10.0249 44.782 10.0587 44.7078 10.1241 43.3553C10.2034 41.7166 10.1631 41.6667 6.94533 39.4129C4.8881 37.9719 4.37634 37.1947 4.21893 35.2714C4.02222 32.8666 4.2996 31.7601 5.343 30.7864C6.49898 29.7078 7.30106 29.4765 9.61394 29.555C11.1492 29.6071 11.6726 29.7266 12.5333 30.2214ZM152.096 30.7238C152.096 31.6811 152.176 31.9709 152.443 31.9709C152.635 31.9709 152.789 31.7694 152.789 31.5174C152.789 31.268 152.938 31.064 153.121 31.064C153.303 31.064 153.518 31.268 153.598 31.5174C153.679 31.7669 153.894 31.9709 154.076 31.9709C154.458 31.9709 154.527 31.1633 154.165 30.9438C153.999 30.8431 154.007 30.6969 154.191 30.4799C154.692 29.8878 154.262 29.4767 153.143 29.4767H152.096V30.7238ZM27.6893 31.7249L27.7566 33.5581H26.3602H24.9641V40.5872V47.6163H22.6526H20.3411V40.5985V33.5808L19.012 33.5128L17.6829 33.4448L17.6138 31.88C17.5756 31.0195 17.5886 30.2032 17.642 30.0661C17.7095 29.894 19.2699 29.8284 22.681 29.8543L27.6223 29.8919L27.6893 31.7249ZM35.5967 38.7166L35.5969 47.6163H33.2854H30.9739V38.8111C30.9739 33.9681 31.0222 29.9583 31.0812 29.9005C31.1404 29.8425 32.1803 29.8001 33.3924 29.806L35.5962 29.8169L35.5967 38.7166ZM82.1734 30.2409C80.8177 30.6667 80.2475 31.01 79.0094 32.1462L77.8971 33.1668V31.8886V30.6105H76.1635H74.4299V39.1134V47.6163H76.1635H77.8971V42.2189C77.8971 36.8591 77.9013 36.8133 78.4988 35.6369C79.3309 33.9989 80.3695 33.2684 82.0338 33.1502C83.2129 33.0666 83.4322 33.1237 84.1229 33.6937C85.4559 34.7939 85.525 35.1898 85.525 41.7137V47.6163H87.2587H88.9923L88.9909 41.0974C88.9902 37.2015 88.891 34.23 88.7445 33.7121C88.0561 31.2805 84.6282 29.4697 82.1734 30.2409ZM153.553 30.2672C153.578 30.3903 153.416 30.5252 153.194 30.5674C152.941 30.615 152.789 30.5039 152.789 30.2703C152.789 29.8758 153.472 29.8731 153.553 30.2672ZM124.705 30.5701C124.196 30.805 123.245 31.4712 122.59 32.0507C121.936 32.6305 121.338 33.1046 121.261 33.1046C121.185 33.1046 121.122 32.5435 121.122 31.8576V30.6105H119.386H117.649L117.71 39.0567L117.77 47.5029L119.562 47.5691L121.353 47.6353V42.2284C121.353 36.8747 121.359 36.8101 121.948 35.6508C122.797 33.9785 124.08 33.1046 125.684 33.1046C126.801 33.1046 127.011 33.1892 127.892 33.9951L128.865 34.8855L128.934 41.2509L129.002 47.6163H130.734H132.467L132.4 40.6063L132.333 33.5962L131.633 32.6199C131.248 32.0829 130.487 31.3363 129.942 30.9606C129.101 30.3803 128.702 30.2676 127.291 30.2105C126.036 30.1595 125.403 30.2477 124.705 30.5701ZM102.861 32.311V34.0116H106.328H109.796V56.0058V78H111.414H113.032V54.3052V30.6105H107.946H102.861V32.311ZM147.08 33.7067C148.665 34.5107 150.016 35.8891 150.016 36.7026C150.016 36.8858 148.562 36.9593 144.93 36.9593C141.238 36.9593 139.845 36.8876 139.845 36.6972C139.845 36.4051 140.902 34.9678 141.454 34.5093C142.831 33.3654 145.622 32.9672 147.08 33.7067ZM18.9542 45.8023V47.6163H17.2206H15.487V45.8023V43.9884H17.2206H18.9542V45.8023ZM29.8182 45.8023V47.6163H28.0846H26.351V45.8023V43.9884H28.0846H29.8182V45.8023ZM40.451 45.8023V47.6163L38.6596 47.6151L36.8682 47.6142L36.8666 45.8012L36.8652 43.9884H38.658H40.451V45.8023Z"/>
 </symbol>

  <!-- Стрелки слайдера вариант 1-->
  <symbol id="nav-btns" viewBox="0 0 13 23">
    <path fill-rule="evenodd" clip-rule="evenodd" d="M0.475952 0.481182C-0.15865 1.12276 -0.15865 2.16296 0.475952 2.80453L9.0769 11.5L0.475952 20.1955C-0.15865 20.837 -0.15865 21.8772 0.475952 22.5188C1.11055 23.1604 2.13945 23.1604 2.77405 22.5188L12.524 12.6617C13.1587 12.0201 13.1587 10.9799 12.524 10.3383L2.77405 0.481182C2.13945 -0.160394 1.11055 -0.160394 0.475952 0.481182Z" fill="#494949"/>
 </symbol>

  <!-- Стрелки слайдера вариант 2-->
  <symbol id="nav-btns2" viewBox="0 0 48 48">
    <path fill-rule="evenodd" clip-rule="evenodd" d="M17.5126 12.5021C16.8291 13.1716 16.8291 14.257 17.5126 14.9265L26.7751 24L17.5126 33.0735C16.8291 33.743 16.8291 34.8284 17.5126 35.4979C18.196 36.1674 19.304 36.1674 19.9874 35.4979L30.4874 25.2122C31.1709 24.5427 31.1709 23.4573 30.4874 22.7878L19.9874 12.5021C19.304 11.8326 18.196 11.8326 17.5126 12.5021Z"/>
 </symbol>

  <!-- Иконка звонка-->
  <symbol id="call" viewBox="0 0 15 15">
    <path d="M14.099 10.7356V12.7505C14.0998 12.9375 14.0614 13.1227 13.9863 13.2941C13.9112 13.4655 13.8011 13.6193 13.663 13.7458C13.5249 13.8722 13.3619 13.9685 13.1843 14.0284C13.0068 14.0883 12.8186 14.1106 12.632 14.0938C10.5611 13.8692 8.5719 13.163 6.82419 12.0318C5.19816 11.0006 3.81958 9.62478 2.78634 8.00197C1.649 6.2498 0.941205 4.25488 0.720306 2.17884C0.703489 1.99311 0.725606 1.80592 0.785248 1.62919C0.844891 1.45246 0.940753 1.29005 1.06673 1.15232C1.19271 1.01459 1.34604 0.904544 1.51697 0.829194C1.68789 0.753845 1.87267 0.71484 2.05953 0.714665H4.07845C4.40505 0.711457 4.72167 0.826882 4.96931 1.03943C5.21694 1.25197 5.37869 1.54713 5.4244 1.86989C5.50961 2.51471 5.66765 3.14784 5.89548 3.7572C5.98603 3.9976 6.00562 4.25886 5.95195 4.51003C5.89828 4.7612 5.77358 4.99175 5.59264 5.17436L5.27843 5.48796C4.95932 5.80644 4.88878 6.30194 5.13922 6.67683C5.92831 7.85802 6.94422 8.87159 8.12804 9.65872C8.50233 9.9076 8.99607 9.83738 9.31422 9.51986L9.63049 9.20421C9.81347 9.02363 10.0445 8.89919 10.2961 8.84562C10.5478 8.79205 10.8096 8.81161 11.0505 8.90197C11.661 9.12936 12.2954 9.28708 12.9415 9.37212C13.2684 9.41815 13.567 9.58249 13.7804 9.83387C13.9938 10.0853 14.1072 10.4062 14.099 10.7356Z" fill="#EC1E22"/>
 </symbol>

   <!-- Иконка закрытия - крестик -->
  <symbol id="icon-close" viewBox="0 0 32 32">
    <path fill-rule="evenodd" clip-rule="evenodd" d="M31.6095 0.390524C32.1302 0.911223 32.1302 1.75544 31.6095 2.27614L2.27614 31.6095C1.75544 32.1302 0.911223 32.1302 0.390524 31.6095C-0.130175 31.0888 -0.130175 30.2446 0.390524 29.7239L29.7239 0.390524C30.2446 -0.130175 31.0888 -0.130175 31.6095 0.390524Z" fill="#E4DFDF"/>
    <path fill-rule="evenodd" clip-rule="evenodd" d="M0.390524 0.390524C0.911223 -0.130175 1.75544 -0.130175 2.27614 0.390524L31.6095 29.7239C32.1302 30.2446 32.1302 31.0888 31.6095 31.6095C31.0888 32.1302 30.2446 32.1302 29.7239 31.6095L0.390524 2.27614C-0.130175 1.75544 -0.130175 0.911223 0.390524 0.390524Z" fill="#E4DFDF"/>
 </symbol>

<!-- <svg class="icon icon-close">
        <use href="./assets/svg/sprite.svg#icon-close"></use>
    </svg> -->

</svg>