<?xml version="1.0" encoding="utf-8"?>
<svg viewBox="0 0 23 23" xmlns="http://www.w3.org/2000/svg" xmlns:xlink="http://www.w3.org/1999/xlink">
  <style>
    :root>svg {
      display: none
    }

    :root>svg:target {
      display: block
    }
  </style>

  <symbol viewBox="0 0 15 15" id="arrow-breadcrumbs">
    <path d="M8.42 5.331a.469.469 0 1 1 .662-.662l2.5 2.5a.469.469 0 0 1 0 .662l-2.5 2.5a.468.468 0 1 1-.663-.662l1.7-1.7H4.063a.469.469 0 1 1 0-.938h6.056l-1.7-1.7Z" />
  </symbol>

  <symbol viewBox="0 0 11 9" id="arrow-icon">
    <path d="M10.817 4.854a.5.5 0 0 0 0-.708L7.635.964a.5.5 0 1 0-.707.708L9.756 4.5 6.928 7.328a.5.5 0 0 0 .707.708l3.182-3.182ZM.535 5h9.928V4H.535v1Z" />
  </symbol>

  <symbol width="23" height="23" viewBox="0 0 23 23" id="icon-close">
    <path fill-rule="evenodd" clip-rule="evenodd" d="M.646.646a.5.5 0 0 1 .708 0L22.036 21.33a.5.5 0 1 1-.707.707L.646 1.354a.5.5 0 0 1 0-.708Z" />
    <path fill-rule="evenodd" clip-rule="evenodd" d="M.647 22.354a.5.5 0 0 1 0-.708L21.329.963a.5.5 0 1 1 .707.708L1.355 22.354a.5.5 0 0 1-.707 0Z" />
  </symbol>

  <symbol id="lektor-free" width="12" height="12" viewBox="0 0 12 12" fill="none" xmlns="http://www.w3.org/2000/svg">
    <path d="M4.98182 12V0H7.01818V12H4.98182ZM0 7.01818V4.98182H12V7.01818H0Z" fill="#3D4248"/>
  </symbol>

  <symbol id="lektor-course" width="12" height="12" viewBox="0 0 12 12" fill="none" xmlns="http://www.w3.org/2000/svg">
    <path fill-rule="evenodd" clip-rule="evenodd" d="M9.46714 0.0271756C9.29016 0.0850499 9.21221 0.14941 8.71417 0.648967L8.23223 1.1324L9.5537 2.45386L10.8752 3.77533L11.3903 3.25506C11.9837 2.65583 12.001 2.62796 12 2.27152C11.999 1.92851 11.9876 1.91296 11.0403 0.965535C10.1151 0.040248 10.082 0.0153554 9.7595 0.00123117C9.6462 -0.00372733 9.53021 0.0065653 9.46714 0.0271756ZM4.38474 4.98245C2.57864 6.79022 1.0886 8.29368 1.07357 8.32348C1.02655 8.41664 0.272824 10.6257 0.127143 11.0974C-0.023071 11.5837 -0.0338883 11.705 0.0616386 11.833C0.248786 12.0837 0.443771 12.0651 1.57149 11.6888C1.99258 11.5483 3.51971 11.0032 3.65165 10.9463C3.71111 10.9207 4.84304 9.80564 7.02578 7.62258L10.3104 4.33744L8.9895 3.01653L7.66856 1.69559L4.38474 4.98245Z" fill="#3D4248"/>
  </symbol>

  <symbol id="calendar" width="26" height="26" viewBox="0 0 26 26" fill="none" xmlns="http://www.w3.org/2000/svg">
    <rect width="26" height="26" fill="white"/>
    <path d="M19.6705 5.05859H18.0822V6.64683C18.0822 6.96448 17.8175 7.17624 17.5528 7.17624C17.2881 7.17624 17.0234 6.96448 17.0234 6.64683V5.05859H8.55283V6.64683C8.55283 6.96448 8.28812 7.17624 8.02341 7.17624C7.75871 7.17624 7.494 6.96448 7.494 6.64683V5.05859H5.90577C5.11165 5.05859 4.5293 5.74683 4.5293 6.64683V8.55271H21.4705V6.64683C21.4705 5.74683 20.5175 5.05859 19.6705 5.05859ZM4.5293 9.66448V19.3527C4.5293 20.3057 5.11165 20.9409 5.95871 20.9409H19.7234C20.5705 20.9409 21.5234 20.2527 21.5234 19.3527V9.66448H4.5293ZM9.24106 18.5586H7.97047C7.75871 18.5586 7.54694 18.3998 7.54694 18.1351V16.8115C7.54694 16.5998 7.70577 16.388 7.97047 16.388H9.294C9.50577 16.388 9.71753 16.5468 9.71753 16.8115V18.1351C9.66459 18.3998 9.50577 18.5586 9.24106 18.5586ZM9.24106 13.7939H7.97047C7.75871 13.7939 7.54694 13.6351 7.54694 13.3704V12.0468C7.54694 11.8351 7.70577 11.6233 7.97047 11.6233H9.294C9.50577 11.6233 9.71753 11.7821 9.71753 12.0468V13.3704C9.66459 13.6351 9.50577 13.7939 9.24106 13.7939ZM13.4764 18.5586H12.1528C11.9411 18.5586 11.7293 18.3998 11.7293 18.1351V16.8115C11.7293 16.5998 11.8881 16.388 12.1528 16.388H13.4764C13.6881 16.388 13.8999 16.5468 13.8999 16.8115V18.1351C13.8999 18.3998 13.7411 18.5586 13.4764 18.5586ZM13.4764 13.7939H12.1528C11.9411 13.7939 11.7293 13.6351 11.7293 13.3704V12.0468C11.7293 11.8351 11.8881 11.6233 12.1528 11.6233H13.4764C13.6881 11.6233 13.8999 11.7821 13.8999 12.0468V13.3704C13.8999 13.6351 13.7411 13.7939 13.4764 13.7939ZM17.7116 18.5586H16.3881C16.1764 18.5586 15.9646 18.3998 15.9646 18.1351V16.8115C15.9646 16.5998 16.1234 16.388 16.3881 16.388H17.7116C17.9234 16.388 18.1352 16.5468 18.1352 16.8115V18.1351C18.1352 18.3998 17.9764 18.5586 17.7116 18.5586ZM17.7116 13.7939H16.3881C16.1764 13.7939 15.9646 13.6351 15.9646 13.3704V12.0468C15.9646 11.8351 16.1234 11.6233 16.3881 11.6233H17.7116C17.9234 11.6233 18.1352 11.7821 18.1352 12.0468V13.3704C18.1352 13.6351 17.9764 13.7939 17.7116 13.7939Z" fill="#AAAAAA"/>
  </symbol>

  <symbol id="clock" width="26" height="26" viewBox="0 0 26 26" fill="none" xmlns="http://www.w3.org/2000/svg">
    <rect width="26" height="26" fill="white"/>
      <g clip-path="url(#clip0_4371_6640)">
        <path d="M13.5 23C18.7454 23 23 18.7454 23 13.5C23 8.25463 18.7454 4 13.5 4C8.25463 4 4 8.25463 4 13.5C4 18.7454 8.25463 23 13.5 23ZM12.8214 8.07144C12.8214 7.69821 13.1268 7.39285 13.5 7.39285C13.8732 7.39285 14.1786 7.69821 14.1786 8.07144V13.1743L17.317 15.685C17.6088 15.9191 17.6563 16.3466 17.4221 16.6384C17.2898 16.8046 17.093 16.8928 16.8928 16.8928C16.7436 16.8928 16.5943 16.8453 16.4688 16.7436L13.0759 14.0293C12.9165 13.9004 12.8215 13.707 12.8215 13.5V8.07144H12.8214Z" fill="#AAAAAA"/>
      </g>
    <defs>
      <clipPath id="clip0_4371_6640">
        <rect width="19" height="19" fill="white" transform="translate(4 4)"/>
      </clipPath>
    </defs>
  </symbol>

  <symbol id="pin" width="26" height="26" viewBox="0 0 26 26" fill="none" xmlns="http://www.w3.org/2000/svg">
    <rect width="26" height="26" fill="white"/>
    <path d="M12.501 3C8.58223 3 5.39453 6.1877 5.39453 10.1064C5.39453 11.383 5.9957 12.9936 7.22773 15.0309C8.25195 16.723 9.52109 18.4041 10.6381 19.8848C11.1539 20.5676 11.64 21.2133 12.0148 21.7477C12.1262 21.9072 12.308 22 12.501 22C12.6939 22 12.8758 21.9072 12.9871 21.7477C13.3619 21.2133 13.848 20.5676 14.3639 19.8848C15.4809 18.4041 16.7463 16.723 17.7742 15.0309C19.0063 12.9936 19.6074 11.383 19.6074 10.1064C19.6074 6.1877 16.4197 3 12.501 3ZM12.501 13.3906C10.69 13.3906 9.2168 11.9174 9.2168 10.1064C9.2168 8.29551 10.69 6.82227 12.501 6.82227C14.3119 6.82227 15.7852 8.29551 15.7852 10.1064C15.7852 11.9174 14.3119 13.3906 12.501 13.3906Z" fill="#AAAAAA"/>
  </symbol>

  <symbol id="persons" width="26" height="26" viewBox="0 0 26 26" fill="none" xmlns="http://www.w3.org/2000/svg">
    <rect width="26" height="26" fill="white"/>
    <path d="M6.45482 13.0752H7.76953C7.63552 13.4421 7.56231 13.838 7.56231 14.2507V19.2196C7.56231 19.3916 7.59226 19.5568 7.64675 19.7104H5.47323C4.66131 19.7104 4.0008 19.0498 4.0008 18.238V15.5292C4.00077 14.1761 5.10165 13.0752 6.45482 13.0752Z" fill="#AAAAAA"/>
    <path d="M17.4385 14.2507C17.4385 13.838 17.3652 13.4421 17.2312 13.0752H18.546C19.8991 13.0752 21 14.1761 21 15.5292V18.238C21 19.0499 20.3395 19.7104 19.5276 19.7104H17.354C17.4085 19.5568 17.4385 19.3916 17.4385 19.2196V14.2507Z" fill="#AAAAAA"/>
    <path d="M10.9974 11.7969H14.003C15.3561 11.7969 16.457 12.8978 16.457 14.2509V19.2198C16.457 19.4908 16.2373 19.7106 15.9662 19.7106H9.03413C8.76305 19.7106 8.54332 19.4909 8.54332 19.2198V14.2509C8.54332 12.8978 9.6442 11.7969 10.9974 11.7969Z" fill="#AAAAAA"/>
    <path d="M12.4999 5.29004C14.1272 5.29004 15.4512 6.61398 15.4512 8.24137C15.4512 9.34521 14.8419 10.3093 13.9422 10.8154C13.5154 11.0555 13.0234 11.1927 12.4999 11.1927C11.9763 11.1927 11.4843 11.0555 11.0576 10.8154C10.1578 10.3093 9.54857 9.34518 9.54857 8.24137C9.54857 6.61402 10.8725 5.29004 12.4999 5.29004Z" fill="#AAAAAA"/>
    <path d="M17.6815 8.04004C18.8986 8.04004 19.8887 9.03016 19.8887 10.2472C19.8887 11.4643 18.8986 12.4544 17.6815 12.4544C17.3728 12.4544 17.0788 12.3905 16.8117 12.2755C16.35 12.0767 15.9693 11.7248 15.7337 11.2841C15.5684 10.9747 15.4743 10.6218 15.4743 10.2472C15.4743 9.03019 16.4644 8.04004 17.6815 8.04004Z" fill="#AAAAAA"/>
    <path d="M7.31821 8.04004C8.53527 8.04004 9.52539 9.03016 9.52539 10.2472C9.52539 10.6218 9.43133 10.9747 9.26597 11.2841C9.0304 11.7249 8.64969 12.0767 8.18797 12.2755C7.92091 12.3905 7.62693 12.4544 7.31821 12.4544C6.10115 12.4544 5.11103 11.4643 5.11103 10.2472C5.11103 9.03016 6.10115 8.04004 7.31821 8.04004Z" fill="#AAAAAA"/>
  </symbol>

  <symbol id="big-arrow" width="61" height="44" viewBox="0 0 61 44" fill="none" xmlns="http://www.w3.org/2000/svg">
    <path fill-rule="evenodd" clip-rule="evenodd" d="M8 21.5C8 20.6716 8.55964 20 9.25 20L51.75 20C52.4404 20 53 20.6716 53 21.5C53 22.3284 52.4404 23 51.75 23L9.25 23C8.55964 23 8 22.3284 8 21.5Z" fill="#C60000"/>
    <path fill-rule="evenodd" clip-rule="evenodd" d="M40.4556 7.54917C41.0631 6.81694 42.048 6.81694 42.6555 7.54917L53.5444 20.6742C54.1519 21.4064 54.1519 22.5936 53.5444 23.3258L42.6555 36.4508C42.048 37.1831 41.0631 37.1831 40.4556 36.4508C39.8481 35.7186 39.8481 34.5314 40.4556 33.7992L50.2446 22L40.4556 10.2008C39.8481 9.46859 39.8481 8.28141 40.4556 7.54917Z" fill="#C60000"/>
  </symbol>

</svg>